<?xml version="1.0" standalone="no"?>
<!DOCTYPE svg PUBLIC "-//W3C//DTD SVG 20010904//EN"
 "http://www.w3.org/TR/2001/REC-SVG-20010904/DTD/svg10.dtd">
<svg version="1.0" xmlns="http://www.w3.org/2000/svg"
 width="2000.000000pt" height="2000.000000pt" viewBox="0 0 2000.000000 2000.000000"
 preserveAspectRatio="xMidYMid meet">
<metadata>
Created by potrace 1.14, written by Peter Selinger 2001-2017
</metadata>
<g transform="translate(0.000000,2000.000000) scale(0.100000,-0.100000)"
fill="#000000" stroke="none">
<path d="M9816 16163 c-1 -1 -67 -5 -146 -8 -80 -4 -158 -8 -173 -10 -15 -2
-60 -6 -100 -10 -40 -3 -83 -8 -97 -10 -14 -2 -47 -6 -75 -10 -95 -11 -117
-14 -143 -19 -15 -3 -45 -8 -67 -11 -152 -21 -476 -92 -670 -147 -150 -42
-401 -122 -450 -143 -16 -7 -64 -25 -105 -40 -487 -182 -1038 -485 -1480 -816
-69 -51 -127 -96 -130 -99 -3 -3 -25 -21 -50 -40 -25 -19 -47 -37 -50 -40 -3
-3 -36 -32 -75 -64 -173 -145 -565 -527 -599 -583 -6 -10 45 -13 241 -13 l248
0 130 128 c643 630 1364 1068 2230 1353 128 43 409 121 478 135 12 2 76 15
142 28 127 27 211 41 285 51 25 3 56 8 70 11 14 2 41 6 60 8 19 2 64 7 100 11
217 23 355 29 620 29 206 0 411 -7 505 -19 17 -1 59 -6 95 -10 36 -4 76 -8 90
-10 14 -2 48 -6 75 -10 28 -3 102 -15 165 -26 169 -28 189 -32 350 -71 69 -16
132 -31 141 -33 35 -7 329 -96 409 -124 388 -133 846 -350 1150 -546 148 -95
243 -157 253 -165 7 -6 66 -50 132 -98 66 -48 129 -95 140 -104 193 -160 300
-255 432 -383 l158 -154 248 -1 c196 0 247 3 240 13 -11 18 -134 147 -268 280
-197 197 -424 390 -665 569 -119 88 -355 248 -365 248 -4 0 -21 11 -38 24
-106 80 -559 317 -809 424 -348 149 -816 303 -1058 348 -14 3 -41 9 -60 14
-19 5 -48 12 -65 15 -28 5 -50 9 -100 19 -119 24 -284 50 -390 61 -27 3 -61 8
-75 10 -14 2 -59 7 -100 10 -41 4 -88 8 -104 10 -96 12 -671 27 -680 18z"/>
<path d="M6577 12784 c-1 -1 -56 -4 -122 -8 -193 -12 -231 -16 -420 -53 -315
-60 -627 -175 -893 -330 -236 -137 -509 -372 -682 -587 -142 -177 -258 -367
-357 -586 -53 -116 -127 -312 -138 -360 -2 -8 -14 -55 -28 -105 -14 -49 -28
-103 -31 -120 -17 -81 -34 -180 -41 -230 -3 -22 -7 -53 -10 -70 -20 -133 -28
-602 -12 -760 12 -114 36 -278 53 -360 9 -38 17 -79 19 -89 34 -161 135 -429
231 -614 370 -714 1074 -1168 1979 -1278 28 -3 61 -8 75 -9 123 -17 444 -22
630 -10 105 6 135 9 220 20 95 13 115 16 130 20 8 3 33 7 55 10 102 16 365 93
465 137 97 43 218 104 280 142 146 88 358 205 410 226 110 44 125 50 150 54
14 2 45 9 70 15 57 13 141 20 261 22 l94 1 0 542 c1 297 4 569 8 603 9 71 39
192 60 243 56 129 176 208 357 236 69 10 96 13 140 13 l46 1 0 138 c0 75 -3
139 -7 142 -4 3 -517 5 -1141 5 l-1133 -1 -3 -142 c-2 -130 -1 -142 15 -143
10 0 25 -2 33 -3 8 -2 38 -6 65 -10 75 -9 103 -15 185 -38 314 -87 440 -269
437 -631 -2 -352 -105 -611 -327 -824 -134 -129 -374 -246 -570 -278 -19 -3
-60 -11 -90 -17 -32 -7 -144 -12 -270 -12 -213 0 -252 2 -400 29 -251 46 -517
180 -700 352 -318 299 -508 726 -585 1318 -3 22 -7 56 -10 75 -25 177 -26 843
-1 975 2 11 7 52 11 90 4 39 8 77 10 85 1 8 6 35 10 60 4 25 9 56 12 70 8 47
43 195 58 250 9 30 18 65 20 76 12 54 81 230 135 342 181 377 441 643 765 785
90 40 256 91 328 101 27 4 57 9 66 11 47 9 186 18 271 19 667 1 1186 -314
1465 -889 58 -120 122 -297 150 -415 10 -41 21 -79 26 -85 4 -6 74 -10 176 -9
l168 1 3 891 2 892 -22 1 c-61 2 -230 0 -232 -3 -3 -3 -13 -35 -94 -305 -20
-68 -40 -123 -43 -123 -3 0 -41 21 -85 46 -114 66 -382 196 -501 243 -163 65
-398 137 -508 156 -187 34 -252 42 -393 51 -87 6 -291 11 -295 8z"/>
<path d="M9977 12710 c-9 -4 -12 -43 -12 -142 l0 -138 30 -1 c16 0 37 -2 45
-3 8 -2 47 -7 85 -10 39 -4 108 -17 155 -28 288 -69 387 -232 417 -688 9 -142
9 -3308 0 -3440 -15 -221 -36 -325 -83 -425 -58 -123 -202 -221 -353 -240 -15
-2 -39 -6 -56 -9 -81 -13 -117 -17 -204 -21 -52 -3 -97 -8 -100 -11 -11 -10
-8 -265 2 -271 6 -3 476 -6 1046 -6 l1036 0 3 141 3 142 -28 1 c-63 2 -151 8
-193 14 -25 4 -61 9 -80 11 -146 20 -255 87 -323 197 -21 34 -54 115 -61 149
-3 13 -7 34 -11 48 -3 14 -8 45 -11 70 -3 25 -7 56 -9 70 -14 78 -18 518 -19
1945 0 1771 -5 1650 67 1543 19 -29 51 -75 71 -103 20 -27 40 -57 46 -65 6 -8
66 -94 133 -190 218 -310 382 -544 399 -570 15 -21 350 -497 386 -547 25 -36
527 -751 602 -858 64 -92 174 -248 611 -870 20 -27 143 -203 274 -390 131
-187 309 -441 396 -565 87 -124 160 -229 162 -234 3 -9 883 -16 934 -8 l21 4
0 2171 c0 1978 3 2351 17 2457 3 19 7 55 10 80 9 75 36 172 66 235 56 122 182
208 344 238 105 20 232 34 328 36 l47 1 0 140 c0 105 -3 140 -12 141 -7 0
-479 0 -1048 0 l-1035 1 -1 -141 -1 -141 46 -1 c25 -1 57 -2 71 -4 14 -1 57
-5 95 -9 39 -4 77 -9 85 -11 8 -2 26 -6 40 -9 180 -31 295 -143 344 -333 48
-186 51 -268 51 -1923 0 -1270 -2 -1505 -14 -1505 -7 0 -84 101 -170 225 -145
208 -617 886 -641 920 -6 8 -59 85 -119 170 -59 85 -282 405 -495 710 -213
305 -392 562 -399 571 -7 8 -16 23 -22 31 -11 18 -99 144 -182 263 -31 44 -76
109 -101 145 -25 36 -107 153 -181 260 -75 107 -143 205 -151 217 -329 477
-393 563 -419 564 -143 3 -1925 3 -1934 -1z"/>
<path d="M5416 5868 c98 -116 360 -375 499 -495 61 -53 122 -105 136 -118 168
-145 592 -448 763 -544 17 -10 76 -44 131 -76 115 -67 485 -254 561 -284 28
-11 73 -29 100 -41 532 -236 1250 -412 1905 -465 284 -24 776 -24 994 0 22 2
69 7 105 10 66 7 73 7 170 19 272 34 648 111 890 182 47 14 93 27 104 29 53
12 400 134 538 190 516 209 1006 489 1444 825 115 89 105 80 264 216 140 119
188 164 344 320 137 138 218 223 230 242 6 9 -45 12 -241 12 l-248 -1 -140
-137 c-133 -131 -308 -286 -405 -362 -25 -19 -54 -43 -64 -52 -28 -25 -312
-230 -344 -248 -15 -8 -29 -17 -32 -20 -9 -11 -214 -138 -315 -195 -151 -87
-595 -305 -621 -305 -3 0 -20 -7 -37 -15 -245 -112 -760 -264 -1122 -329 -115
-21 -145 -26 -180 -31 -22 -3 -58 -8 -80 -11 -74 -10 -90 -12 -160 -20 -38 -4
-79 -8 -90 -10 -225 -24 -904 -24 -1033 1 -9 1 -51 6 -92 10 -41 4 -83 9 -94
11 -10 2 -44 6 -75 10 -31 3 -65 8 -76 10 -11 2 -49 9 -84 14 -54 9 -275 53
-333 66 -10 2 -26 6 -35 8 -300 68 -764 228 -1058 366 -613 285 -1129 641
-1600 1102 l-140 137 -249 1 -249 0 19 -22z"/>
</g>
</svg>
<?xml version="1.0" standalone="no"?>
<!DOCTYPE svg PUBLIC "-//W3C//DTD SVG 20010904//EN"
 "http://www.w3.org/TR/2001/REC-SVG-20010904/DTD/svg10.dtd">
<svg version="1.0" xmlns="http://www.w3.org/2000/svg"
 width="2000.000000pt" height="2000.000000pt" viewBox="0 0 2000.000000 2000.000000"
 preserveAspectRatio="xMidYMid meet">
<metadata>
Created by potrace 1.14, written by Peter Selinger 2001-2017
</metadata>
<g transform="translate(0.000000,2000.000000) scale(0.100000,-0.100000)"
fill="#000000" stroke="none">
<path d="M9816 16163 c-1 -1 -67 -5 -146 -8 -80 -4 -158 -8 -173 -10 -15 -2
-60 -6 -100 -10 -40 -3 -83 -8 -97 -10 -14 -2 -47 -6 -75 -10 -95 -11 -117
-14 -143 -19 -15 -3 -45 -8 -67 -11 -152 -21 -476 -92 -670 -147 -150 -42
-401 -122 -450 -143 -16 -7 -64 -25 -105 -40 -487 -182 -1038 -485 -1480 -816
-69 -51 -127 -96 -130 -99 -3 -3 -25 -21 -50 -40 -25 -19 -47 -37 -50 -40 -3
-3 -36 -32 -75 -64 -173 -145 -565 -527 -599 -583 -6 -10 45 -13 241 -13 l248
0 130 128 c643 630 1364 1068 2230 1353 128 43 409 121 478 135 12 2 76 15
142 28 127 27 211 41 285 51 25 3 56 8 70 11 14 2 41 6 60 8 19 2 64 7 100 11
217 23 355 29 620 29 206 0 411 -7 505 -19 17 -1 59 -6 95 -10 36 -4 76 -8 90
-10 14 -2 48 -6 75 -10 28 -3 102 -15 165 -26 169 -28 189 -32 350 -71 69 -16
132 -31 141 -33 35 -7 329 -96 409 -124 388 -133 846 -350 1150 -546 148 -95
243 -157 253 -165 7 -6 66 -50 132 -98 66 -48 129 -95 140 -104 193 -160 300
-255 432 -383 l158 -154 248 -1 c196 0 247 3 240 13 -11 18 -134 147 -268 280
-197 197 -424 390 -665 569 -119 88 -355 248 -365 248 -4 0 -21 11 -38 24
-106 80 -559 317 -809 424 -348 149 -816 303 -1058 348 -14 3 -41 9 -60 14
-19 5 -48 12 -65 15 -28 5 -50 9 -100 19 -119 24 -284 50 -390 61 -27 3 -61 8
-75 10 -14 2 -59 7 -100 10 -41 4 -88 8 -104 10 -96 12 -671 27 -680 18z"/>
<path d="M6577 12784 c-1 -1 -56 -4 -122 -8 -193 -12 -231 -16 -420 -53 -315
-60 -627 -175 -893 -330 -236 -137 -509 -372 -682 -587 -142 -177 -258 -367
-357 -586 -53 -116 -127 -312 -138 -360 -2 -8 -14 -55 -28 -105 -14 -49 -28
-103 -31 -120 -17 -81 -34 -180 -41 -230 -3 -22 -7 -53 -10 -70 -20 -133 -28
-602 -12 -760 12 -114 36 -278 53 -360 9 -38 17 -79 19 -89 34 -161 135 -429
231 -614 370 -714 1074 -1168 1979 -1278 28 -3 61 -8 75 -9 123 -17 444 -22
630 -10 105 6 135 9 220 20 95 13 115 16 130 20 8 3 33 7 55 10 102 16 365 93
465 137 97 43 218 104 280 142 146 88 358 205 410 226 110 44 125 50 150 54
14 2 45 9 70 15 57 13 141 20 261 22 l94 1 0 542 c1 297 4 569 8 603 9 71 39
192 60 243 56 129 176 208 357 236 69 10 96 13 140 13 l46 1 0 138 c0 75 -3
139 -7 142 -4 3 -517 5 -1141 5 l-1133 -1 -3 -142 c-2 -130 -1 -142 15 -143
10 0 25 -2 33 -3 8 -2 38 -6 65 -10 75 -9 103 -15 185 -38 314 -87 440 -269
437 -631 -2 -352 -105 -611 -327 -824 -134 -129 -374 -246 -570 -278 -19 -3
-60 -11 -90 -17 -32 -7 -144 -12 -270 -12 -213 0 -252 2 -400 29 -251 46 -517
180 -700 352 -318 299 -508 726 -585 1318 -3 22 -7 56 -10 75 -25 177 -26 843
-1 975 2 11 7 52 11 90 4 39 8 77 10 85 1 8 6 35 10 60 4 25 9 56 12 70 8 47
43 195 58 250 9 30 18 65 20 76 12 54 81 230 135 342 181 377 441 643 765 785
90 40 256 91 328 101 27 4 57 9 66 11 47 9 186 18 271 19 667 1 1186 -314
1465 -889 58 -120 122 -297 150 -415 10 -41 21 -79 26 -85 4 -6 74 -10 176 -9
l168 1 3 891 2 892 -22 1 c-61 2 -230 0 -232 -3 -3 -3 -13 -35 -94 -305 -20
-68 -40 -123 -43 -123 -3 0 -41 21 -85 46 -114 66 -382 196 -501 243 -163 65
-398 137 -508 156 -187 34 -252 42 -393 51 -87 6 -291 11 -295 8z"/>
<path d="M9977 12710 c-9 -4 -12 -43 -12 -142 l0 -138 30 -1 c16 0 37 -2 45
-3 8 -2 47 -7 85 -10 39 -4 108 -17 155 -28 288 -69 387 -232 417 -688 9 -142
9 -3308 0 -3440 -15 -221 -36 -325 -83 -425 -58 -123 -202 -221 -353 -240 -15
-2 -39 -6 -56 -9 -81 -13 -117 -17 -204 -21 -52 -3 -97 -8 -100 -11 -11 -10
-8 -265 2 -271 6 -3 476 -6 1046 -6 l1036 0 3 141 3 142 -28 1 c-63 2 -151 8
-193 14 -25 4 -61 9 -80 11 -146 20 -255 87 -323 197 -21 34 -54 115 -61 149
-3 13 -7 34 -11 48 -3 14 -8 45 -11 70 -3 25 -7 56 -9 70 -14 78 -18 518 -19
1945 0 1771 -5 1650 67 1543 19 -29 51 -75 71 -103 20 -27 40 -57 46 -65 6 -8
66 -94 133 -190 218 -310 382 -544 399 -570 15 -21 350 -497 386 -547 25 -36
527 -751 602 -858 64 -92 174 -248 611 -870 20 -27 143 -203 274 -390 131
-187 309 -441 396 -565 87 -124 160 -229 162 -234 3 -9 883 -16 934 -8 l21 4
0 2171 c0 1978 3 2351 17 2457 3 19 7 55 10 80 9 75 36 172 66 235 56 122 182
208 344 238 105 20 232 34 328 36 l47 1 0 140 c0 105 -3 140 -12 141 -7 0
-479 0 -1048 0 l-1035 1 -1 -141 -1 -141 46 -1 c25 -1 57 -2 71 -4 14 -1 57
-5 95 -9 39 -4 77 -9 85 -11 8 -2 26 -6 40 -9 180 -31 295 -143 344 -333 48
-186 51 -268 51 -1923 0 -1270 -2 -1505 -14 -1505 -7 0 -84 101 -170 225 -145
208 -617 886 -641 920 -6 8 -59 85 -119 170 -59 85 -282 405 -495 710 -213
305 -392 562 -399 571 -7 8 -16 23 -22 31 -11 18 -99 144 -182 263 -31 44 -76
109 -101 145 -25 36 -107 153 -181 260 -75 107 -143 205 -151 217 -329 477
-393 563 -419 564 -143 3 -1925 3 -1934 -1z"/>
<path d="M5416 5868 c98 -116 360 -375 499 -495 61 -53 122 -105 136 -118 168
-145 592 -448 763 -544 17 -10 76 -44 131 -76 115 -67 485 -254 561 -284 28
-11 73 -29 100 -41 532 -236 1250 -412 1905 -465 284 -24 776 -24 994 0 22 2
69 7 105 10 66 7 73 7 170 19 272 34 648 111 890 182 47 14 93 27 104 29 53
12 400 134 538 190 516 209 1006 489 1444 825 115 89 105 80 264 216 140 119
188 164 344 320 137 138 218 223 230 242 6 9 -45 12 -241 12 l-248 -1 -140
-137 c-133 -131 -308 -286 -405 -362 -25 -19 -54 -43 -64 -52 -28 -25 -312
-230 -344 -248 -15 -8 -29 -17 -32 -20 -9 -11 -214 -138 -315 -195 -151 -87
-595 -305 -621 -305 -3 0 -20 -7 -37 -15 -245 -112 -760 -264 -1122 -329 -115
-21 -145 -26 -180 -31 -22 -3 -58 -8 -80 -11 -74 -10 -90 -12 -160 -20 -38 -4
-79 -8 -90 -10 -225 -24 -904 -24 -1033 1 -9 1 -51 6 -92 10 -41 4 -83 9 -94
11 -10 2 -44 6 -75 10 -31 3 -65 8 -76 10 -11 2 -49 9 -84 14 -54 9 -275 53
-333 66 -10 2 -26 6 -35 8 -300 68 -764 228 -1058 366 -613 285 -1129 641
-1600 1102 l-140 137 -249 1 -249 0 19 -22z"/>
</g>
</svg>
<?xml version="1.0" standalone="no"?>
<!DOCTYPE svg PUBLIC "-//W3C//DTD SVG 20010904//EN"
 "http://www.w3.org/TR/2001/REC-SVG-20010904/DTD/svg10.dtd">
<svg version="1.0" xmlns="http://www.w3.org/2000/svg"
 width="2000.000000pt" height="2000.000000pt" viewBox="0 0 2000.000000 2000.000000"
 preserveAspectRatio="xMidYMid meet">
<metadata>
Created by potrace 1.14, written by Peter Selinger 2001-2017
</metadata>
<g transform="translate(0.000000,2000.000000) scale(0.100000,-0.100000)"
fill="#000000" stroke="none">
<path d="M9816 16163 c-1 -1 -67 -5 -146 -8 -80 -4 -158 -8 -173 -10 -15 -2
-60 -6 -100 -10 -40 -3 -83 -8 -97 -10 -14 -2 -47 -6 -75 -10 -95 -11 -117
-14 -143 -19 -15 -3 -45 -8 -67 -11 -152 -21 -476 -92 -670 -147 -150 -42
-401 -122 -450 -143 -16 -7 -64 -25 -105 -40 -487 -182 -1038 -485 -1480 -816
-69 -51 -127 -96 -130 -99 -3 -3 -25 -21 -50 -40 -25 -19 -47 -37 -50 -40 -3
-3 -36 -32 -75 -64 -173 -145 -565 -527 -599 -583 -6 -10 45 -13 241 -13 l248
0 130 128 c643 630 1364 1068 2230 1353 128 43 409 121 478 135 12 2 76 15
142 28 127 27 211 41 285 51 25 3 56 8 70 11 14 2 41 6 60 8 19 2 64 7 100 11
217 23 355 29 620 29 206 0 411 -7 505 -19 17 -1 59 -6 95 -10 36 -4 76 -8 90
-10 14 -2 48 -6 75 -10 28 -3 102 -15 165 -26 169 -28 189 -32 350 -71 69 -16
132 -31 141 -33 35 -7 329 -96 409 -124 388 -133 846 -350 1150 -546 148 -95
243 -157 253 -165 7 -6 66 -50 132 -98 66 -48 129 -95 140 -104 193 -160 300
-255 432 -383 l158 -154 248 -1 c196 0 247 3 240 13 -11 18 -134 147 -268 280
-197 197 -424 390 -665 569 -119 88 -355 248 -365 248 -4 0 -21 11 -38 24
-106 80 -559 317 -809 424 -348 149 -816 303 -1058 348 -14 3 -41 9 -60 14
-19 5 -48 12 -65 15 -28 5 -50 9 -100 19 -119 24 -284 50 -390 61 -27 3 -61 8
-75 10 -14 2 -59 7 -100 10 -41 4 -88 8 -104 10 -96 12 -671 27 -680 18z"/>
<path d="M6577 12784 c-1 -1 -56 -4 -122 -8 -193 -12 -231 -16 -420 -53 -315
-60 -627 -175 -893 -330 -236 -137 -509 -372 -682 -587 -142 -177 -258 -367
-357 -586 -53 -116 -127 -312 -138 -360 -2 -8 -14 -55 -28 -105 -14 -49 -28
-103 -31 -120 -17 -81 -34 -180 -41 -230 -3 -22 -7 -53 -10 -70 -20 -133 -28
-602 -12 -760 12 -114 36 -278 53 -360 9 -38 17 -79 19 -89 34 -161 135 -429
231 -614 370 -714 1074 -1168 1979 -1278 28 -3 61 -8 75 -9 123 -17 444 -22
630 -10 105 6 135 9 220 20 95 13 115 16 130 20 8 3 33 7 55 10 102 16 365 93
465 137 97 43 218 104 280 142 146 88 358 205 410 226 110 44 125 50 150 54
14 2 45 9 70 15 57 13 141 20 261 22 l94 1 0 542 c1 297 4 569 8 603 9 71 39
192 60 243 56 129 176 208 357 236 69 10 96 13 140 13 l46 1 0 138 c0 75 -3
139 -7 142 -4 3 -517 5 -1141 5 l-1133 -1 -3 -142 c-2 -130 -1 -142 15 -143
10 0 25 -2 33 -3 8 -2 38 -6 65 -10 75 -9 103 -15 185 -38 314 -87 440 -269
437 -631 -2 -352 -105 -611 -327 -824 -134 -129 -374 -246 -570 -278 -19 -3
-60 -11 -90 -17 -32 -7 -144 -12 -270 -12 -213 0 -252 2 -400 29 -251 46 -517
180 -700 352 -318 299 -508 726 -585 1318 -3 22 -7 56 -10 75 -25 177 -26 843
-1 975 2 11 7 52 11 90 4 39 8 77 10 85 1 8 6 35 10 60 4 25 9 56 12 70 8 47
43 195 58 250 9 30 18 65 20 76 12 54 81 230 135 342 181 377 441 643 765 785
90 40 256 91 328 101 27 4 57 9 66 11 47 9 186 18 271 19 667 1 1186 -314
1465 -889 58 -120 122 -297 150 -415 10 -41 21 -79 26 -85 4 -6 74 -10 176 -9
l168 1 3 891 2 892 -22 1 c-61 2 -230 0 -232 -3 -3 -3 -13 -35 -94 -305 -20
-68 -40 -123 -43 -123 -3 0 -41 21 -85 46 -114 66 -382 196 -501 243 -163 65
-398 137 -508 156 -187 34 -252 42 -393 51 -87 6 -291 11 -295 8z"/>
<path d="M9977 12710 c-9 -4 -12 -43 -12 -142 l0 -138 30 -1 c16 0 37 -2 45
-3 8 -2 47 -7 85 -10 39 -4 108 -17 155 -28 288 -69 387 -232 417 -688 9 -142
9 -3308 0 -3440 -15 -221 -36 -325 -83 -425 -58 -123 -202 -221 -353 -240 -15
-2 -39 -6 -56 -9 -81 -13 -117 -17 -204 -21 -52 -3 -97 -8 -100 -11 -11 -10
-8 -265 2 -271 6 -3 476 -6 1046 -6 l1036 0 3 141 3 142 -28 1 c-63 2 -151 8
-193 14 -25 4 -61 9 -80 11 -146 20 -255 87 -323 197 -21 34 -54 115 -61 149
-3 13 -7 34 -11 48 -3 14 -8 45 -11 70 -3 25 -7 56 -9 70 -14 78 -18 518 -19
1945 0 1771 -5 1650 67 1543 19 -29 51 -75 71 -103 20 -27 40 -57 46 -65 6 -8
66 -94 133 -190 218 -310 382 -544 399 -570 15 -21 350 -497 386 -547 25 -36
527 -751 602 -858 64 -92 174 -248 611 -870 20 -27 143 -203 274 -390 131
-187 309 -441 396 -565 87 -124 160 -229 162 -234 3 -9 883 -16 934 -8 l21 4
0 2171 c0 1978 3 2351 17 2457 3 19 7 55 10 80 9 75 36 172 66 235 56 122 182
208 344 238 105 20 232 34 328 36 l47 1 0 140 c0 105 -3 140 -12 141 -7 0
-479 0 -1048 0 l-1035 1 -1 -141 -1 -141 46 -1 c25 -1 57 -2 71 -4 14 -1 57
-5 95 -9 39 -4 77 -9 85 -11 8 -2 26 -6 40 -9 180 -31 295 -143 344 -333 48
-186 51 -268 51 -1923 0 -1270 -2 -1505 -14 -1505 -7 0 -84 101 -170 225 -145
208 -617 886 -641 920 -6 8 -59 85 -119 170 -59 85 -282 405 -495 710 -213
305 -392 562 -399 571 -7 8 -16 23 -22 31 -11 18 -99 144 -182 263 -31 44 -76
109 -101 145 -25 36 -107 153 -181 260 -75 107 -143 205 -151 217 -329 477
-393 563 -419 564 -143 3 -1925 3 -1934 -1z"/>
<path d="M5416 5868 c98 -116 360 -375 499 -495 61 -53 122 -105 136 -118 168
-145 592 -448 763 -544 17 -10 76 -44 131 -76 115 -67 485 -254 561 -284 28
-11 73 -29 100 -41 532 -236 1250 -412 1905 -465 284 -24 776 -24 994 0 22 2
69 7 105 10 66 7 73 7 170 19 272 34 648 111 890 182 47 14 93 27 104 29 53
12 400 134 538 190 516 209 1006 489 1444 825 115 89 105 80 264 216 140 119
188 164 344 320 137 138 218 223 230 242 6 9 -45 12 -241 12 l-248 -1 -140
-137 c-133 -131 -308 -286 -405 -362 -25 -19 -54 -43 -64 -52 -28 -25 -312
-230 -344 -248 -15 -8 -29 -17 -32 -20 -9 -11 -214 -138 -315 -195 -151 -87
-595 -305 -621 -305 -3 0 -20 -7 -37 -15 -245 -112 -760 -264 -1122 -329 -115
-21 -145 -26 -180 -31 -22 -3 -58 -8 -80 -11 -74 -10 -90 -12 -160 -20 -38 -4
-79 -8 -90 -10 -225 -24 -904 -24 -1033 1 -9 1 -51 6 -92 10 -41 4 -83 9 -94
11 -10 2 -44 6 -75 10 -31 3 -65 8 -76 10 -11 2 -49 9 -84 14 -54 9 -275 53
-333 66 -10 2 -26 6 -35 8 -300 68 -764 228 -1058 366 -613 285 -1129 641
-1600 1102 l-140 137 -249 1 -249 0 19 -22z"/>
</g>
</svg>
